<svg xmlns="http://www.w3.org/2000/svg" xmlns:xlink="http://www.w3.org/1999/xlink" width="600" zoomAndPan="magnify" viewBox="0 0 450 149.999998" height="200" preserveAspectRatio="xMidYMid meet" version="1.0"><defs><g/></defs><g fill="#4bc62c" fill-opacity="1"><g transform="translate(-0.106949, 93.717338)"><g><path d="M 5.265625 0 L 5.265625 -36.421875 L 13.109375 -36.421875 L 14.15625 -32.671875 C 15.5 -34.242188 17.128906 -35.421875 19.046875 -36.203125 C 20.960938 -36.992188 23.078125 -37.390625 25.390625 -37.390625 C 30.753906 -37.390625 34.753906 -35.398438 37.390625 -31.421875 C 38.867188 -33.316406 40.726562 -34.785156 42.96875 -35.828125 C 45.21875 -36.867188 47.726562 -37.390625 50.5 -37.390625 C 55.175781 -37.390625 58.890625 -35.941406 61.640625 -33.046875 C 64.390625 -30.160156 65.765625 -26.222656 65.765625 -21.234375 L 65.765625 0 L 55.21875 0 L 55.21875 -19.984375 C 55.21875 -22.566406 54.582031 -24.609375 53.3125 -26.109375 C 52.039062 -27.617188 50.316406 -28.375 48.140625 -28.375 C 45.878906 -28.375 44.078125 -27.585938 42.734375 -26.015625 C 41.390625 -24.441406 40.71875 -22.335938 40.71875 -19.703125 L 40.71875 0 L 30.3125 0 L 30.3125 -19.984375 C 30.3125 -22.566406 29.675781 -24.609375 28.40625 -26.109375 C 27.132812 -27.617188 25.410156 -28.375 23.234375 -28.375 C 20.972656 -28.375 19.171875 -27.585938 17.828125 -26.015625 C 16.484375 -24.441406 15.8125 -22.335938 15.8125 -19.703125 L 15.8125 0 Z M 5.265625 0 "/></g></g></g><g fill="#4bc62c" fill-opacity="1"><g transform="translate(66.007328, 93.717338)"><g><path d="M 17.40625 0.6875 C 13.113281 0.6875 9.71875 -0.316406 7.21875 -2.328125 C 4.71875 -4.335938 3.46875 -7.097656 3.46875 -10.609375 C 3.46875 -13.984375 4.585938 -16.675781 6.828125 -18.6875 C 9.078125 -20.707031 12.097656 -21.71875 15.890625 -21.71875 L 29.0625 -21.71875 L 29.0625 -23.375 C 29.0625 -25.175781 28.414062 -26.617188 27.125 -27.703125 C 25.832031 -28.796875 24.144531 -29.34375 22.0625 -29.34375 C 20.351562 -29.34375 18.894531 -28.945312 17.6875 -28.15625 C 16.488281 -27.375 15.726562 -26.335938 15.40625 -25.046875 L 5.265625 -25.046875 C 5.921875 -29.023438 7.710938 -32.078125 10.640625 -34.203125 C 13.578125 -36.328125 17.359375 -37.390625 21.984375 -37.390625 C 27.441406 -37.390625 31.707031 -36.015625 34.78125 -33.265625 C 37.863281 -30.515625 39.40625 -26.734375 39.40625 -21.921875 L 39.40625 0 L 31.5625 0 L 30.390625 -4.234375 C 27.191406 -0.953125 22.863281 0.6875 17.40625 0.6875 Z M 13.875 -11.03125 C 13.875 -9.78125 14.414062 -8.773438 15.5 -8.015625 C 16.59375 -7.253906 18.039062 -6.875 19.84375 -6.875 C 22.476562 -6.875 24.660156 -7.632812 26.390625 -9.15625 C 28.128906 -10.6875 29.046875 -12.675781 29.140625 -15.125 L 19.140625 -15.125 C 17.566406 -15.125 16.296875 -14.753906 15.328125 -14.015625 C 14.359375 -13.273438 13.875 -12.28125 13.875 -11.03125 Z M 13.875 -11.03125 "/></g></g></g><g fill="#4bc62c" fill-opacity="1"><g transform="translate(105.759123, 93.717338)"><g><path d="M 22.828125 0 C 18.203125 0 14.648438 -1.1875 12.171875 -3.5625 C 9.703125 -5.945312 8.46875 -9.363281 8.46875 -13.8125 L 8.46875 -27.8125 L 1.390625 -27.8125 L 1.390625 -36.421875 L 4.640625 -36.421875 C 6.628906 -36.421875 7.984375 -36.742188 8.703125 -37.390625 C 9.421875 -38.035156 9.921875 -39.285156 10.203125 -41.140625 L 10.828125 -45.859375 L 19.015625 -45.859375 L 19.015625 -36.421875 L 29 -36.421875 L 29 -27.8125 L 19.015625 -27.8125 L 19.015625 -15.40625 C 19.015625 -11.238281 21.046875 -9.15625 25.109375 -9.15625 L 29.484375 -9.15625 L 29.484375 0 Z M 22.828125 0 "/></g></g></g><g fill="#4bc62c" fill-opacity="1"><g transform="translate(133.925286, 93.717338)"><g><path d="M 17.40625 0.6875 C 13.113281 0.6875 9.71875 -0.316406 7.21875 -2.328125 C 4.71875 -4.335938 3.46875 -7.097656 3.46875 -10.609375 C 3.46875 -13.984375 4.585938 -16.675781 6.828125 -18.6875 C 9.078125 -20.707031 12.097656 -21.71875 15.890625 -21.71875 L 29.0625 -21.71875 L 29.0625 -23.375 C 29.0625 -25.175781 28.414062 -26.617188 27.125 -27.703125 C 25.832031 -28.796875 24.144531 -29.34375 22.0625 -29.34375 C 20.351562 -29.34375 18.894531 -28.945312 17.6875 -28.15625 C 16.488281 -27.375 15.726562 -26.335938 15.40625 -25.046875 L 5.265625 -25.046875 C 5.921875 -29.023438 7.710938 -32.078125 10.640625 -34.203125 C 13.578125 -36.328125 17.359375 -37.390625 21.984375 -37.390625 C 27.441406 -37.390625 31.707031 -36.015625 34.78125 -33.265625 C 37.863281 -30.515625 39.40625 -26.734375 39.40625 -21.921875 L 39.40625 0 L 31.5625 0 L 30.390625 -4.234375 C 27.191406 -0.953125 22.863281 0.6875 17.40625 0.6875 Z M 13.875 -11.03125 C 13.875 -9.78125 14.414062 -8.773438 15.5 -8.015625 C 16.59375 -7.253906 18.039062 -6.875 19.84375 -6.875 C 22.476562 -6.875 24.660156 -7.632812 26.390625 -9.15625 C 28.128906 -10.6875 29.046875 -12.675781 29.140625 -15.125 L 19.140625 -15.125 C 17.566406 -15.125 16.296875 -14.753906 15.328125 -14.015625 C 14.359375 -13.273438 13.875 -12.28125 13.875 -11.03125 Z M 13.875 -11.03125 "/></g></g></g><g fill="#4bc62c" fill-opacity="1"><g transform="translate(173.67708, 93.717338)"><g><path d="M 14.078125 0 L 0.625 -36.421875 L 11.796875 -36.421875 L 16.03125 -24.34375 L 19.640625 -14.15625 L 23.375 -24.34375 L 27.890625 -36.421875 L 36.421875 -36.421875 L 40.9375 -24.34375 L 44.671875 -14.078125 L 48.28125 -24.34375 L 52.59375 -36.421875 L 63.6875 -36.421875 L 50.234375 0 L 40.453125 0 L 32.1875 -22.203125 L 23.859375 0 Z M 14.078125 0 "/></g></g></g><g fill="#4bc62c" fill-opacity="1"><g transform="translate(233.755732, 93.717338)"><g><path d="M 5.265625 0 L 5.265625 -36.421875 L 15.8125 -36.421875 L 15.8125 0 Z M 3.75 -48.21875 C 3.75 -50.15625 4.382812 -51.738281 5.65625 -52.96875 C 6.925781 -54.195312 8.554688 -54.8125 10.546875 -54.8125 C 12.578125 -54.8125 14.21875 -54.195312 15.46875 -52.96875 C 16.71875 -51.738281 17.34375 -50.15625 17.34375 -48.21875 C 17.34375 -46.269531 16.71875 -44.679688 15.46875 -43.453125 C 14.21875 -42.234375 12.578125 -41.625 10.546875 -41.625 C 8.554688 -41.625 6.925781 -42.234375 5.65625 -43.453125 C 4.382812 -44.679688 3.75 -46.269531 3.75 -48.21875 Z M 3.75 -48.21875 "/></g></g></g><g fill="#ff751f" fill-opacity="1"><g transform="translate(250.615697, 93.717338)"><g><path d="M 21.984375 0.90625 C 18.429688 0.90625 15.265625 0.0820312 12.484375 -1.5625 C 9.710938 -3.207031 7.539062 -5.453125 5.96875 -8.296875 C 4.394531 -11.140625 3.609375 -14.382812 3.609375 -18.03125 C 3.609375 -21.6875 4.394531 -24.925781 5.96875 -27.75 C 7.539062 -30.570312 9.710938 -32.800781 12.484375 -34.4375 C 15.265625 -36.082031 18.429688 -36.90625 21.984375 -36.90625 C 24.804688 -36.90625 27.394531 -36.382812 29.75 -35.34375 C 32.113281 -34.300781 34.109375 -32.832031 35.734375 -30.9375 L 35.734375 -51.34375 L 41.5625 -51.34375 L 41.5625 0 L 36.765625 0 L 36.078125 -5.546875 C 34.453125 -3.554688 32.425781 -1.984375 30 -0.828125 C 27.570312 0.328125 24.898438 0.90625 21.984375 0.90625 Z M 9.4375 -18.03125 C 9.4375 -15.445312 10 -13.144531 11.125 -11.125 C 12.257812 -9.113281 13.820312 -7.539062 15.8125 -6.40625 C 17.800781 -5.28125 20.09375 -4.71875 22.6875 -4.71875 C 25.320312 -4.71875 27.632812 -5.28125 29.625 -6.40625 C 31.613281 -7.539062 33.160156 -9.113281 34.265625 -11.125 C 35.378906 -13.144531 35.9375 -15.445312 35.9375 -18.03125 C 35.9375 -20.625 35.378906 -22.925781 34.265625 -24.9375 C 33.160156 -26.945312 31.613281 -28.519531 29.625 -29.65625 C 27.632812 -30.789062 25.320312 -31.359375 22.6875 -31.359375 C 20.09375 -31.359375 17.800781 -30.789062 15.8125 -29.65625 C 13.820312 -28.519531 12.257812 -26.945312 11.125 -24.9375 C 10 -22.925781 9.4375 -20.625 9.4375 -18.03125 Z M 9.4375 -18.03125 "/></g></g></g><g fill="#ff751f" fill-opacity="1"><g transform="translate(294.391234, 93.717338)"><g><path d="M 6.453125 0 L 6.453125 -36 L 12.28125 -36 L 12.28125 0 Z M 4.640625 -46.484375 C 4.640625 -47.828125 5.066406 -48.925781 5.921875 -49.78125 C 6.785156 -50.632812 7.929688 -51.0625 9.359375 -51.0625 C 10.796875 -51.0625 11.929688 -50.632812 12.765625 -49.78125 C 13.597656 -48.925781 14.015625 -47.828125 14.015625 -46.484375 C 14.015625 -45.179688 13.597656 -44.101562 12.765625 -43.25 C 11.929688 -42.394531 10.796875 -41.96875 9.359375 -41.96875 C 7.929688 -41.96875 6.785156 -42.394531 5.921875 -43.25 C 5.066406 -44.101562 4.640625 -45.179688 4.640625 -46.484375 Z M 4.640625 -46.484375 "/></g></g></g><g fill="#ff751f" fill-opacity="1"><g transform="translate(308.890531, 93.717338)"><g><path d="M 22.546875 14.78125 C 17.960938 14.78125 14.144531 13.65625 11.09375 11.40625 C 8.039062 9.164062 6.191406 6.128906 5.546875 2.296875 L 11.453125 2.296875 C 12.003906 4.460938 13.25 6.179688 15.1875 7.453125 C 17.132812 8.722656 19.585938 9.359375 22.546875 9.359375 C 26.335938 9.359375 29.273438 8.34375 31.359375 6.3125 C 33.441406 4.28125 34.484375 1.410156 34.484375 -2.296875 L 34.484375 -5.6875 C 32.910156 -4.019531 31.007812 -2.710938 28.78125 -1.765625 C 26.5625 -0.816406 24.160156 -0.34375 21.578125 -0.34375 C 18.148438 -0.34375 15.082031 -1.140625 12.375 -2.734375 C 9.675781 -4.335938 7.539062 -6.515625 5.96875 -9.265625 C 4.394531 -12.015625 3.609375 -15.144531 3.609375 -18.65625 C 3.609375 -22.175781 4.394531 -25.300781 5.96875 -28.03125 C 7.539062 -30.757812 9.675781 -32.921875 12.375 -34.515625 C 15.082031 -36.109375 18.148438 -36.90625 21.578125 -36.90625 C 24.304688 -36.90625 26.8125 -36.394531 29.09375 -35.375 C 31.382812 -34.363281 33.316406 -32.957031 34.890625 -31.15625 L 35.515625 -36 L 40.3125 -36 L 40.3125 -2.078125 C 40.3125 1.296875 39.582031 4.253906 38.125 6.796875 C 36.664062 9.335938 34.601562 11.300781 31.9375 12.6875 C 29.28125 14.082031 26.148438 14.78125 22.546875 14.78125 Z M 9.4375 -18.65625 C 9.4375 -16.207031 9.976562 -14.023438 11.0625 -12.109375 C 12.15625 -10.191406 13.671875 -8.695312 15.609375 -7.625 C 17.546875 -6.5625 19.742188 -6.03125 22.203125 -6.03125 C 24.703125 -6.03125 26.910156 -6.5625 28.828125 -7.625 C 30.742188 -8.695312 32.242188 -10.191406 33.328125 -12.109375 C 34.421875 -14.023438 34.96875 -16.207031 34.96875 -18.65625 C 34.96875 -21.113281 34.421875 -23.289062 33.328125 -25.1875 C 32.242188 -27.082031 30.742188 -28.570312 28.828125 -29.65625 C 26.910156 -30.738281 24.703125 -31.28125 22.203125 -31.28125 C 19.742188 -31.28125 17.546875 -30.738281 15.609375 -29.65625 C 13.671875 -28.570312 12.15625 -27.082031 11.0625 -25.1875 C 9.976562 -23.289062 9.4375 -21.113281 9.4375 -18.65625 Z M 9.4375 -18.65625 "/></g></g></g><g fill="#ff751f" fill-opacity="1"><g transform="translate(351.417323, 93.717338)"><g><path d="M 6.453125 0 L 6.453125 -36 L 12.28125 -36 L 12.28125 0 Z M 4.640625 -46.484375 C 4.640625 -47.828125 5.066406 -48.925781 5.921875 -49.78125 C 6.785156 -50.632812 7.929688 -51.0625 9.359375 -51.0625 C 10.796875 -51.0625 11.929688 -50.632812 12.765625 -49.78125 C 13.597656 -48.925781 14.015625 -47.828125 14.015625 -46.484375 C 14.015625 -45.179688 13.597656 -44.101562 12.765625 -43.25 C 11.929688 -42.394531 10.796875 -41.96875 9.359375 -41.96875 C 7.929688 -41.96875 6.785156 -42.394531 5.921875 -43.25 C 5.066406 -44.101562 4.640625 -45.179688 4.640625 -46.484375 Z M 4.640625 -46.484375 "/></g></g></g><g fill="#ff751f" fill-opacity="1"><g transform="translate(365.91662, 93.717338)"><g><path d="M 21.984375 0 C 18.015625 0 14.929688 -1.128906 12.734375 -3.390625 C 10.535156 -5.660156 9.4375 -8.851562 9.4375 -12.96875 L 9.4375 -30.65625 L 1.875 -30.65625 L 1.875 -36 L 5.484375 -36 C 7.148438 -36 8.304688 -36.273438 8.953125 -36.828125 C 9.597656 -37.390625 10.015625 -38.476562 10.203125 -40.09375 L 10.75 -44.953125 L 15.265625 -44.953125 L 15.265625 -36 L 26.921875 -36 L 26.921875 -30.65625 L 15.265625 -30.65625 L 15.265625 -13.25 C 15.265625 -8.164062 17.597656 -5.625 22.265625 -5.625 L 27.40625 -5.625 L 27.40625 0 Z M 21.984375 0 "/></g></g></g><g fill="#ff751f" fill-opacity="1"><g transform="translate(392.487167, 93.717338)"><g><path d="M 18.25 0.5625 C 13.894531 0.5625 10.492188 -0.421875 8.046875 -2.390625 C 5.597656 -4.359375 4.375 -7.03125 4.375 -10.40625 C 4.375 -13.6875 5.503906 -16.296875 7.765625 -18.234375 C 10.035156 -20.179688 13.039062 -21.15625 16.78125 -21.15625 L 31.5 -21.15625 L 31.5 -22.484375 C 31.5 -25.296875 30.617188 -27.5 28.859375 -29.09375 C 27.097656 -30.695312 24.691406 -31.5 21.640625 -31.5 C 19.328125 -31.5 17.316406 -30.976562 15.609375 -29.9375 C 13.898438 -28.894531 12.742188 -27.492188 12.140625 -25.734375 L 6.25 -25.734375 C 7.03125 -29.203125 8.796875 -31.929688 11.546875 -33.921875 C 14.296875 -35.910156 17.640625 -36.90625 21.578125 -36.90625 C 24.722656 -36.90625 27.472656 -36.316406 29.828125 -35.140625 C 32.191406 -33.960938 34.03125 -32.320312 35.34375 -30.21875 C 36.664062 -28.113281 37.328125 -25.671875 37.328125 -22.890625 L 37.328125 0 L 32.53125 0 L 31.90625 -5 C 28.625 -1.289062 24.070312 0.5625 18.25 0.5625 Z M 10.203125 -10.46875 C 10.203125 -8.71875 10.941406 -7.304688 12.421875 -6.234375 C 13.898438 -5.171875 15.910156 -4.640625 18.453125 -4.640625 C 20.953125 -4.640625 23.171875 -5.125 25.109375 -6.09375 C 27.054688 -7.070312 28.609375 -8.414062 29.765625 -10.125 C 30.921875 -11.84375 31.519531 -13.8125 31.5625 -16.03125 L 17 -16.03125 C 15.007812 -16.03125 13.378906 -15.53125 12.109375 -14.53125 C 10.835938 -13.539062 10.203125 -12.1875 10.203125 -10.46875 Z M 10.203125 -10.46875 "/></g></g></g><g fill="#ff751f" fill-opacity="1"><g transform="translate(431.267702, 93.717338)"><g><path d="M 6.453125 0 L 6.453125 -51.34375 L 12.28125 -51.34375 L 12.28125 0 Z M 6.453125 0 "/></g></g></g></svg>