<svg xmlns="http://www.w3.org/2000/svg" xmlns:xlink="http://www.w3.org/1999/xlink" width="600" zoomAndPan="magnify" viewBox="0 0 450 149.999998" height="200" preserveAspectRatio="xMidYMid meet" version="1.0"><defs><g/><clipPath id="4914d0b3c2"><path d="M 63 0.238281 L 447 0.238281 L 447 86.878906 L 63 86.878906 Z M 63 0.238281 " clip-rule="nonzero"/></clipPath><clipPath id="b89f060ef7"><rect x="0" width="384" y="0" height="87"/></clipPath><clipPath id="a6bceadcf2"><path d="M 0.414062 21.539062 L 58.914062 21.539062 L 58.914062 80 L 0.414062 80 Z M 0.414062 21.539062 " clip-rule="nonzero"/></clipPath><clipPath id="54447ad116"><rect x="0" width="447" y="0" height="87"/></clipPath></defs><g transform="matrix(1, 0, 0, 1, 3, 24)"><g clip-path="url(#54447ad116)"><g clip-path="url(#4914d0b3c2)"><g transform="matrix(1, 0, 0, 1, 63, -0.000000000000007105)"><g clip-path="url(#b89f060ef7)"><g fill="#4bc62c" fill-opacity="1"><g transform="translate(1.184558, 63.300782)"><g><path d="M 4.53125 0 L 4.53125 -31.25 L 11.25 -31.25 L 12.140625 -28.046875 C 13.296875 -29.390625 14.695312 -30.398438 16.34375 -31.078125 C 17.988281 -31.753906 19.800781 -32.09375 21.78125 -32.09375 C 26.382812 -32.09375 29.820312 -30.382812 32.09375 -26.96875 C 33.363281 -28.59375 34.957031 -29.851562 36.875 -30.75 C 38.800781 -31.644531 40.957031 -32.09375 43.34375 -32.09375 C 47.34375 -32.09375 50.523438 -30.847656 52.890625 -28.359375 C 55.253906 -25.878906 56.4375 -22.5 56.4375 -18.21875 L 56.4375 0 L 47.390625 0 L 47.390625 -17.140625 C 47.390625 -19.367188 46.84375 -21.125 45.75 -22.40625 C 44.65625 -23.695312 43.175781 -24.34375 41.3125 -24.34375 C 39.363281 -24.34375 37.8125 -23.664062 36.65625 -22.3125 C 35.507812 -20.96875 34.9375 -19.164062 34.9375 -16.90625 L 34.9375 0 L 26.015625 0 L 26.015625 -17.140625 C 26.015625 -19.367188 25.46875 -21.125 24.375 -22.40625 C 23.28125 -23.695312 21.800781 -24.34375 19.9375 -24.34375 C 18 -24.34375 16.453125 -23.664062 15.296875 -22.3125 C 14.148438 -20.96875 13.578125 -19.164062 13.578125 -16.90625 L 13.578125 0 Z M 4.53125 0 "/></g></g></g><g fill="#4bc62c" fill-opacity="1"><g transform="translate(57.913487, 63.300782)"><g><path d="M 14.9375 0.59375 C 11.25 0.59375 8.332031 -0.265625 6.1875 -1.984375 C 4.039062 -3.710938 2.96875 -6.085938 2.96875 -9.109375 C 2.96875 -12.003906 3.929688 -14.316406 5.859375 -16.046875 C 7.785156 -17.773438 10.375 -18.640625 13.625 -18.640625 L 24.9375 -18.640625 L 24.9375 -20.0625 C 24.9375 -21.613281 24.378906 -22.851562 23.265625 -23.78125 C 22.160156 -24.71875 20.71875 -25.1875 18.9375 -25.1875 C 17.46875 -25.1875 16.210938 -24.847656 15.171875 -24.171875 C 14.140625 -23.492188 13.488281 -22.597656 13.21875 -21.484375 L 4.53125 -21.484375 C 5.082031 -24.898438 6.617188 -27.519531 9.140625 -29.34375 C 11.660156 -31.175781 14.90625 -32.09375 18.875 -32.09375 C 23.550781 -32.09375 27.207031 -30.910156 29.84375 -28.546875 C 32.488281 -26.179688 33.8125 -22.9375 33.8125 -18.8125 L 33.8125 0 L 27.09375 0 L 26.078125 -3.625 C 23.335938 -0.8125 19.625 0.59375 14.9375 0.59375 Z M 11.90625 -9.46875 C 11.90625 -8.394531 12.367188 -7.53125 13.296875 -6.875 C 14.234375 -6.21875 15.476562 -5.890625 17.03125 -5.890625 C 19.289062 -5.890625 21.164062 -6.546875 22.65625 -7.859375 C 24.144531 -9.171875 24.925781 -10.878906 25 -12.984375 L 16.4375 -12.984375 C 15.082031 -12.984375 13.988281 -12.664062 13.15625 -12.03125 C 12.320312 -11.394531 11.90625 -10.539062 11.90625 -9.46875 Z M 11.90625 -9.46875 "/></g></g></g><g fill="#4bc62c" fill-opacity="1"><g transform="translate(92.021959, 63.300782)"><g><path d="M 19.578125 0 C 15.609375 0 12.5625 -1.019531 10.4375 -3.0625 C 8.320312 -5.101562 7.265625 -8.03125 7.265625 -11.84375 L 7.265625 -23.875 L 1.1875 -23.875 L 1.1875 -31.25 L 3.984375 -31.25 C 5.691406 -31.25 6.851562 -31.523438 7.46875 -32.078125 C 8.082031 -32.640625 8.507812 -33.710938 8.75 -35.296875 L 9.28125 -39.34375 L 16.3125 -39.34375 L 16.3125 -31.25 L 24.890625 -31.25 L 24.890625 -23.875 L 16.3125 -23.875 L 16.3125 -13.21875 C 16.3125 -9.644531 18.054688 -7.859375 21.546875 -7.859375 L 25.296875 -7.859375 L 25.296875 0 Z M 19.578125 0 "/></g></g></g><g fill="#4bc62c" fill-opacity="1"><g transform="translate(116.189343, 63.300782)"><g><path d="M 14.9375 0.59375 C 11.25 0.59375 8.332031 -0.265625 6.1875 -1.984375 C 4.039062 -3.710938 2.96875 -6.085938 2.96875 -9.109375 C 2.96875 -12.003906 3.929688 -14.316406 5.859375 -16.046875 C 7.785156 -17.773438 10.375 -18.640625 13.625 -18.640625 L 24.9375 -18.640625 L 24.9375 -20.0625 C 24.9375 -21.613281 24.378906 -22.851562 23.265625 -23.78125 C 22.160156 -24.71875 20.71875 -25.1875 18.9375 -25.1875 C 17.46875 -25.1875 16.210938 -24.847656 15.171875 -24.171875 C 14.140625 -23.492188 13.488281 -22.597656 13.21875 -21.484375 L 4.53125 -21.484375 C 5.082031 -24.898438 6.617188 -27.519531 9.140625 -29.34375 C 11.660156 -31.175781 14.90625 -32.09375 18.875 -32.09375 C 23.550781 -32.09375 27.207031 -30.910156 29.84375 -28.546875 C 32.488281 -26.179688 33.8125 -22.9375 33.8125 -18.8125 L 33.8125 0 L 27.09375 0 L 26.078125 -3.625 C 23.335938 -0.8125 19.625 0.59375 14.9375 0.59375 Z M 11.90625 -9.46875 C 11.90625 -8.394531 12.367188 -7.53125 13.296875 -6.875 C 14.234375 -6.21875 15.476562 -5.890625 17.03125 -5.890625 C 19.289062 -5.890625 21.164062 -6.546875 22.65625 -7.859375 C 24.144531 -9.171875 24.925781 -10.878906 25 -12.984375 L 16.4375 -12.984375 C 15.082031 -12.984375 13.988281 -12.664062 13.15625 -12.03125 C 12.320312 -11.394531 11.90625 -10.539062 11.90625 -9.46875 Z M 11.90625 -9.46875 "/></g></g></g><g fill="#4bc62c" fill-opacity="1"><g transform="translate(150.297815, 63.300782)"><g><path d="M 12.078125 0 L 0.53125 -31.25 L 10.125 -31.25 L 13.75 -20.890625 L 16.84375 -12.140625 L 20.0625 -20.890625 L 23.9375 -31.25 L 31.25 -31.25 L 35.125 -20.890625 L 38.34375 -12.078125 L 41.4375 -20.890625 L 45.125 -31.25 L 54.65625 -31.25 L 43.09375 0 L 34.703125 0 L 27.625 -19.046875 L 20.484375 0 Z M 12.078125 0 "/></g></g></g><g fill="#4bc62c" fill-opacity="1"><g transform="translate(201.847858, 63.300782)"><g><path d="M 4.53125 0 L 4.53125 -31.25 L 13.578125 -31.25 L 13.578125 0 Z M 3.21875 -41.375 C 3.21875 -43.039062 3.757812 -44.398438 4.84375 -45.453125 C 5.9375 -46.503906 7.335938 -47.03125 9.046875 -47.03125 C 10.796875 -47.03125 12.203125 -46.503906 13.265625 -45.453125 C 14.335938 -44.398438 14.875 -43.039062 14.875 -41.375 C 14.875 -39.707031 14.335938 -38.347656 13.265625 -37.296875 C 12.203125 -36.242188 10.796875 -35.71875 9.046875 -35.71875 C 7.335938 -35.71875 5.9375 -36.242188 4.84375 -37.296875 C 3.757812 -38.347656 3.21875 -39.707031 3.21875 -41.375 Z M 3.21875 -41.375 "/></g></g></g><g fill="#ff751f" fill-opacity="1"><g transform="translate(216.314737, 63.300782)"><g><path d="M 18.875 0.78125 C 15.8125 0.78125 13.085938 0.078125 10.703125 -1.328125 C 8.328125 -2.742188 6.460938 -4.671875 5.109375 -7.109375 C 3.765625 -9.554688 3.09375 -12.347656 3.09375 -15.484375 C 3.09375 -18.617188 3.765625 -21.394531 5.109375 -23.8125 C 6.460938 -26.226562 8.328125 -28.140625 10.703125 -29.546875 C 13.085938 -30.960938 15.8125 -31.671875 18.875 -31.671875 C 21.289062 -31.671875 23.507812 -31.222656 25.53125 -30.328125 C 27.5625 -29.429688 29.269531 -28.171875 30.65625 -26.546875 L 30.65625 -44.046875 L 35.65625 -44.046875 L 35.65625 0 L 31.546875 0 L 30.953125 -4.765625 C 29.566406 -3.054688 27.832031 -1.703125 25.75 -0.703125 C 23.664062 0.285156 21.375 0.78125 18.875 0.78125 Z M 8.09375 -15.484375 C 8.09375 -13.253906 8.578125 -11.273438 9.546875 -9.546875 C 10.523438 -7.828125 11.867188 -6.476562 13.578125 -5.5 C 15.285156 -4.53125 17.25 -4.046875 19.46875 -4.046875 C 21.726562 -4.046875 23.710938 -4.53125 25.421875 -5.5 C 27.128906 -6.476562 28.457031 -7.828125 29.40625 -9.546875 C 30.363281 -11.273438 30.84375 -13.253906 30.84375 -15.484375 C 30.84375 -17.703125 30.363281 -19.671875 29.40625 -21.390625 C 28.457031 -23.117188 27.128906 -24.46875 25.421875 -25.4375 C 23.710938 -26.414062 21.726562 -26.90625 19.46875 -26.90625 C 17.25 -26.90625 15.285156 -26.414062 13.578125 -25.4375 C 11.867188 -24.46875 10.523438 -23.117188 9.546875 -21.390625 C 8.578125 -19.671875 8.09375 -17.703125 8.09375 -15.484375 Z M 8.09375 -15.484375 "/></g></g></g><g fill="#ff751f" fill-opacity="1"><g transform="translate(253.875804, 63.300782)"><g><path d="M 5.53125 0 L 5.53125 -30.890625 L 10.53125 -30.890625 L 10.53125 0 Z M 3.984375 -39.890625 C 3.984375 -41.035156 4.347656 -41.972656 5.078125 -42.703125 C 5.816406 -43.441406 6.800781 -43.8125 8.03125 -43.8125 C 9.257812 -43.8125 10.234375 -43.441406 10.953125 -42.703125 C 11.671875 -41.972656 12.03125 -41.035156 12.03125 -39.890625 C 12.03125 -38.773438 11.671875 -37.847656 10.953125 -37.109375 C 10.234375 -36.378906 9.257812 -36.015625 8.03125 -36.015625 C 6.800781 -36.015625 5.816406 -36.378906 5.078125 -37.109375 C 4.347656 -37.847656 3.984375 -38.773438 3.984375 -39.890625 Z M 3.984375 -39.890625 "/></g></g></g><g fill="#ff751f" fill-opacity="1"><g transform="translate(266.31626, 63.300782)"><g><path d="M 19.34375 12.6875 C 15.414062 12.6875 12.140625 11.722656 9.515625 9.796875 C 6.898438 7.867188 5.316406 5.257812 4.765625 1.96875 L 9.828125 1.96875 C 10.296875 3.832031 11.363281 5.304688 13.03125 6.390625 C 14.695312 7.484375 16.800781 8.03125 19.34375 8.03125 C 22.601562 8.03125 25.125 7.15625 26.90625 5.40625 C 28.695312 3.664062 29.59375 1.207031 29.59375 -1.96875 L 29.59375 -4.875 C 28.238281 -3.445312 26.609375 -2.328125 24.703125 -1.515625 C 22.796875 -0.703125 20.734375 -0.296875 18.515625 -0.296875 C 15.578125 -0.296875 12.945312 -0.976562 10.625 -2.34375 C 8.300781 -3.71875 6.460938 -5.582031 5.109375 -7.9375 C 3.765625 -10.300781 3.09375 -12.992188 3.09375 -16.015625 C 3.09375 -19.023438 3.765625 -21.703125 5.109375 -24.046875 C 6.460938 -26.390625 8.300781 -28.242188 10.625 -29.609375 C 12.945312 -30.984375 15.578125 -31.671875 18.515625 -31.671875 C 20.859375 -31.671875 23.007812 -31.234375 24.96875 -30.359375 C 26.9375 -29.484375 28.59375 -28.273438 29.9375 -26.734375 L 30.484375 -30.890625 L 34.59375 -30.890625 L 34.59375 -1.78125 C 34.59375 1.113281 33.96875 3.648438 32.71875 5.828125 C 31.46875 8.015625 29.695312 9.703125 27.40625 10.890625 C 25.125 12.085938 22.4375 12.6875 19.34375 12.6875 Z M 8.09375 -16.015625 C 8.09375 -13.910156 8.554688 -12.035156 9.484375 -10.390625 C 10.421875 -8.742188 11.722656 -7.460938 13.390625 -6.546875 C 15.054688 -5.628906 16.941406 -5.171875 19.046875 -5.171875 C 21.191406 -5.171875 23.085938 -5.628906 24.734375 -6.546875 C 26.378906 -7.460938 27.664062 -8.742188 28.59375 -10.390625 C 29.53125 -12.035156 30 -13.910156 30 -16.015625 C 30 -18.117188 29.53125 -19.984375 28.59375 -21.609375 C 27.664062 -23.234375 26.378906 -24.507812 24.734375 -25.4375 C 23.085938 -26.375 21.191406 -26.84375 19.046875 -26.84375 C 16.941406 -26.84375 15.054688 -26.375 13.390625 -25.4375 C 11.722656 -24.507812 10.421875 -23.234375 9.484375 -21.609375 C 8.554688 -19.984375 8.09375 -18.117188 8.09375 -16.015625 Z M 8.09375 -16.015625 "/></g></g></g><g fill="#ff751f" fill-opacity="1"><g transform="translate(302.805833, 63.300782)"><g><path d="M 5.53125 0 L 5.53125 -30.890625 L 10.53125 -30.890625 L 10.53125 0 Z M 3.984375 -39.890625 C 3.984375 -41.035156 4.347656 -41.972656 5.078125 -42.703125 C 5.816406 -43.441406 6.800781 -43.8125 8.03125 -43.8125 C 9.257812 -43.8125 10.234375 -43.441406 10.953125 -42.703125 C 11.671875 -41.972656 12.03125 -41.035156 12.03125 -39.890625 C 12.03125 -38.773438 11.671875 -37.847656 10.953125 -37.109375 C 10.234375 -36.378906 9.257812 -36.015625 8.03125 -36.015625 C 6.800781 -36.015625 5.816406 -36.378906 5.078125 -37.109375 C 4.347656 -37.847656 3.984375 -38.773438 3.984375 -39.890625 Z M 3.984375 -39.890625 "/></g></g></g><g fill="#ff751f" fill-opacity="1"><g transform="translate(315.246288, 63.300782)"><g><path d="M 18.875 0 C 15.457031 0 12.804688 -0.96875 10.921875 -2.90625 C 9.035156 -4.851562 8.09375 -7.59375 8.09375 -11.125 L 8.09375 -26.3125 L 1.609375 -26.3125 L 1.609375 -30.890625 L 4.703125 -30.890625 C 6.128906 -30.890625 7.117188 -31.128906 7.671875 -31.609375 C 8.234375 -32.085938 8.59375 -33.019531 8.75 -34.40625 L 9.234375 -38.578125 L 13.09375 -38.578125 L 13.09375 -30.890625 L 23.09375 -30.890625 L 23.09375 -26.3125 L 13.09375 -26.3125 L 13.09375 -11.375 C 13.09375 -7.007812 15.097656 -4.828125 19.109375 -4.828125 L 23.515625 -4.828125 L 23.515625 0 Z M 18.875 0 "/></g></g></g><g fill="#ff751f" fill-opacity="1"><g transform="translate(338.044532, 63.300782)"><g><path d="M 15.65625 0.46875 C 11.925781 0.46875 9.007812 -0.367188 6.90625 -2.046875 C 4.800781 -3.734375 3.75 -6.023438 3.75 -8.921875 C 3.75 -11.742188 4.71875 -13.988281 6.65625 -15.65625 C 8.601562 -17.320312 11.1875 -18.15625 14.40625 -18.15625 L 27.03125 -18.15625 L 27.03125 -19.28125 C 27.03125 -21.707031 26.273438 -23.601562 24.765625 -24.96875 C 23.253906 -26.34375 21.191406 -27.03125 18.578125 -27.03125 C 16.585938 -27.03125 14.859375 -26.582031 13.390625 -25.6875 C 11.921875 -24.789062 10.929688 -23.59375 10.421875 -22.09375 L 5.359375 -22.09375 C 6.035156 -25.0625 7.550781 -27.398438 9.90625 -29.109375 C 12.269531 -30.816406 15.140625 -31.671875 18.515625 -31.671875 C 21.210938 -31.671875 23.570312 -31.164062 25.59375 -30.15625 C 27.625 -29.144531 29.203125 -27.734375 30.328125 -25.921875 C 31.460938 -24.117188 32.03125 -22.023438 32.03125 -19.640625 L 32.03125 0 L 27.921875 0 L 27.390625 -4.28125 C 24.566406 -1.113281 20.65625 0.46875 15.65625 0.46875 Z M 8.75 -8.984375 C 8.75 -7.484375 9.382812 -6.273438 10.65625 -5.359375 C 11.925781 -4.441406 13.648438 -3.984375 15.828125 -3.984375 C 17.972656 -3.984375 19.878906 -4.398438 21.546875 -5.234375 C 23.210938 -6.066406 24.539062 -7.21875 25.53125 -8.6875 C 26.53125 -10.15625 27.050781 -11.84375 27.09375 -13.75 L 14.578125 -13.75 C 12.878906 -13.75 11.484375 -13.320312 10.390625 -12.46875 C 9.296875 -11.613281 8.75 -10.453125 8.75 -8.984375 Z M 8.75 -8.984375 "/></g></g></g><g fill="#ff751f" fill-opacity="1"><g transform="translate(371.319619, 63.300782)"><g><path d="M 5.53125 0 L 5.53125 -44.046875 L 10.53125 -44.046875 L 10.53125 0 Z M 5.53125 0 "/></g></g></g></g></g></g><g clip-path="url(#a6bceadcf2)"><path fill="#4bc62c" d="M 13.058594 53.410156 C 13.058594 52.492188 14.167969 52.035156 14.816406 52.683594 L 19.824219 57.691406 C 20.210938 58.074219 20.222656 58.695312 19.867188 59.097656 C 19.851562 59.113281 19.839844 59.128906 19.824219 59.144531 L 14.816406 64.152344 C 14.167969 64.796875 13.058594 64.339844 13.058594 63.421875 L 13.058594 53.410156 M 17.042969 79.789062 L 44.152344 52.683594 C 44.796875 52.035156 45.90625 52.492188 45.90625 53.410156 L 45.90625 79.789062 L 58.539062 79.789062 L 58.539062 22.910156 C 58.539062 21.996094 57.429688 21.535156 56.78125 22.183594 L 30.210938 48.757812 C 30.199219 48.769531 30.183594 48.78125 30.171875 48.792969 C 29.765625 49.15625 29.144531 49.144531 28.757812 48.757812 L 2.183594 22.183594 C 1.535156 21.535156 0.429688 21.996094 0.429688 22.910156 L 0.429688 79.789062 L 17.042969 79.789062 " fill-opacity="1" fill-rule="nonzero"/></g><path fill="#4bc62c" d="M 20.042969 58.019531 C 19.996094 57.898438 19.921875 57.785156 19.824219 57.691406 L 15.460938 53.328125 L 19.824219 57.691406 C 19.921875 57.785156 19.996094 57.898438 20.042969 58.019531 M 29.484375 49.058594 C 29.484375 49.058594 29.488281 49.058594 29.488281 49.058594 C 29.488281 49.058594 29.484375 49.058594 29.484375 49.058594 M 29.480469 49.058594 C 29.21875 49.058594 28.957031 48.957031 28.757812 48.757812 C 28.957031 48.957031 29.21875 49.058594 29.480469 49.058594 M 30.078125 48.871094 C 30.109375 48.847656 30.140625 48.820312 30.171875 48.792969 C 30.140625 48.820312 30.109375 48.847656 30.078125 48.871094 " fill-opacity="1" fill-rule="nonzero"/><path fill="#ff751f" d="M 19.867188 59.097656 C 20.132812 58.796875 20.191406 58.375 20.042969 58.019531 C 19.996094 57.898438 19.921875 57.785156 19.824219 57.691406 L 15.460938 53.328125 L 24.394531 44.394531 L 28.757812 48.757812 C 28.957031 48.957031 29.21875 49.058594 29.480469 49.058594 C 29.480469 49.058594 29.480469 49.058594 29.484375 49.058594 C 29.484375 49.058594 29.488281 49.058594 29.488281 49.058594 C 29.695312 49.058594 29.902344 48.992188 30.078125 48.871094 C 30.109375 48.847656 30.140625 48.820312 30.171875 48.792969 L 19.867188 59.097656 " fill-opacity="1" fill-rule="nonzero"/></g></g></svg>